<svg width="13" height="17" viewBox="0 0 13 17" fill="none" xmlns="http://www.w3.org/2000/svg">
<path d="M2.61175 0.424518L3.49945 0.140718C4.33187 -0.124932 5.22122 0.304893 5.57762 1.14474L6.28712 2.81784C6.59567 3.54632 6.42407 4.40349 5.86307 4.93644L4.2997 6.41979C4.39622 7.30749 4.69487 8.18117 5.19482 9.04082C5.66958 9.87253 6.3064 10.6005 7.06757 11.1817L8.94527 10.5547C9.65642 10.3179 10.4319 10.591 10.8675 11.232L11.8847 12.7253C12.3921 13.4711 12.3005 14.499 11.6711 15.131L10.997 15.8083C10.3255 16.4823 9.36602 16.7273 8.47914 16.4501C6.38364 15.7967 4.45892 13.8572 2.70167 10.6314C0.941946 7.40072 0.320721 4.65842 0.838821 2.40782C1.05662 1.46072 1.73065 0.705843 2.61175 0.424518Z" fill="white"/>
</svg>
